<?xml version="1.0" encoding="iso-8859-1"?>

<!DOCTYPE svg PUBLIC "-//W3C//DTD SVG 20000303 Stylable//EN"
"http://www.w3.org/TR/2000/03/WD-SVG-20000303/DTD/svg-20000303-stylable.dtd">





<svg xml:space="preserve" width="5.5in" height="2.0in">


<g font-family="Verdana" font-size="24" >
<text style="fill:brown;" x="20" y="25">Schedule Effectivness</text>
</g>

<rect style="fill:cornsilk;" y="25" x="20" width="550" height="300"/>
<line x1="55" y1="35" x2="55" y2="150" stroke="black" stroke-width="2" />
<line x1="53" y1="55" x2="55" y2="35" stroke="black" stroke-width="2" />
<line x1="57" y1="55" x2="55" y2="35" stroke="black" stroke-width="2" />

<line x1="55" y1="150" x2="500" y2="150" stroke="black" stroke-width="2" />
<line x1="480" y1="148" x2="500" y2="150" stroke="black" stroke-width="2" />
<line x1="480" y1="152" x2="500" y2="150" stroke="black" stroke-width="2" />
<text style="fill:black;" x="35" y="45">$$</text>
<text style="fill:black;" x="45" y="150">0</text>
<text style="fill:black;" x="52" y="165">7</text>

<line x1="75" y1="150" x2="75" y2="155" stroke="black" stroke-width="1" />
<text style="fill:black;" x="72" y="165">8</text>

<line x1="95" y1="150" x2="95" y2="155" stroke="black" stroke-width="1" />
<text style="fill:black;" x="92" y="165">9</text>

<line x1="115" y1="150" x2="115" y2="155" stroke="black" stroke-width="1" />
<text style="fill:black;" x="112" y="165">10</text>

<line x1="135" y1="150" x2="135" y2="155" stroke="black" stroke-width="1" />
<text style="fill:black;" x="132" y="165">11</text>

<line x1="155" y1="150" x2="155" y2="155" stroke="black" stroke-width="1" />
<text style="fill:black;" x="152" y="165">12</text>

<line x1="175" y1="150" x2="175" y2="155" stroke="black" stroke-width="1" />
<text style="fill:black;" x="172" y="165">1</text>

<line x1="195" y1="150" x2="195" y2="155" stroke="black" stroke-width="1" />
<text style="fill:black;" x="192" y="165">2</text>

<line x1="215" y1="150" x2="215" y2="155" stroke="black" stroke-width="1" />
<text style="fill:black;" x="212" y="165">3</text>

<line x1="235" y1="150" x2="235" y2="155" stroke="black" stroke-width="1" />
<text style="fill:black;" x="232" y="165">4</text>

<line x1="255" y1="150" x2="255" y2="155" stroke="black" stroke-width="1" />
<text style="fill:black;" x="252" y="165">5</text>

<line x1="275" y1="150" x2="275" y2="155" stroke="black" stroke-width="1" />
<text style="fill:black;" x="272" y="165">6</text>

<line x1="295" y1="150" x2="295" y2="155" stroke="black" stroke-width="1" />
<text style="fill:black;" x="292" y="165">7</text>

<line x1="315" y1="150" x2="315" y2="155" stroke="black" stroke-width="1" />
<text style="fill:black;" x="312" y="165">8</text>

<line x1="335" y1="150" x2="335" y2="155" stroke="black" stroke-width="1" />
<text style="fill:black;" x="332" y="165">9</text>

<line x1="355" y1="150" x2="355" y2="155" stroke="black" stroke-width="1" />
<text style="fill:black;" x="352" y="165">10</text>

<line x1="375" y1="150" x2="375" y2="155" stroke="black" stroke-width="1" />
<text style="fill:black;" x="372" y="165">11</text>

<line x1="395" y1="150" x2="395" y2="155" stroke="black" stroke-width="1" />
<text style="fill:black;" x="392" y="165">12</text>


</svg>


</svg>
